<?xml version="1.0" encoding="utf-8"?>
<!-- Generator: Adobe Illustrator 25.4.8, SVG Export Plug-In . SVG Version: 6.00 Build 0)  -->
<svg version="1.1" id="Ebene_1" xmlns="http://www.w3.org/2000/svg" xmlns:xlink="http://www.w3.org/1999/xlink" x="0px" y="0px"
	 viewBox="0 0 141.7 141.7" style="enable-background:new 0 0 141.7 141.7;" xml:space="preserve">
<style type="text/css">
	.st8{fill:#FFFFFF;}
</style>
<g>
	<g>
		<path class="st8" d="M16.3,91.4v2.9h2.2v1.7h-2.2v5.6h-2.1v-12h5.1v1.7H16.3z"/>
		<path class="st8" d="M28.9,100v1.7H24v-12h2.1V100H28.9z"/>
		<path class="st8" d="M36.5,101.7h-2.1V97l-2.5-7.3H34l1.5,5.8h0l1.4-5.8H39L36.5,97V101.7z"/>
		<path class="st8" d="M45.8,101.7h-2.1v-12h2.1V101.7z"/>
		<path class="st8" d="M57.2,89.7v12h-2.1L53,94.8h0v6.8h-2.1v-12h2.3l2,6.6h0v-6.6H57.2z"/>
		<path class="st8" d="M66.4,93.2v-0.9c0-0.4-0.4-1-1-1c-0.8,0-1.1,0.6-1.1,1v6.9c0,0.4,0.3,1,1.1,1c0.8,0,1.2-0.6,1.2-1.5v-1.8
			h-1.2V95h3.1v3.7c0,1.6-1,3.1-3.1,3.1c-2.4,0-3.2-1.5-3.2-2.7v-6.9c0-1.2,0.9-2.7,3.2-2.7c2.2,0,3.1,1.5,3.1,2.7v0.9H66.4z"/>
		<path class="st8" d="M82.2,93.1v-0.5c0-0.8-0.4-1.3-1-1.3c-0.5,0-1,0.4-1,0.9c0,0.5,0.1,0.9,0.6,1.5l2.1,2.4c0.9,1,1.4,1.6,1.4,3
			c0,1.7-1.5,2.7-3.2,2.7c-1.7,0-3.1-1-3.1-2.7v-1.2h2.2V99c0,0.7,0.4,1.1,1,1.1c0.5,0,1-0.4,1-1.1c0-0.6-0.3-1.1-0.7-1.6l-1.8-1.8
			c-1.1-1.3-1.6-1.7-1.6-3.3c0-1.6,1.3-2.7,3.1-2.7c1.8,0,3.1,1.1,3.1,2.7v0.8H82.2z"/>
		<path class="st8" d="M95.2,91.4H93v10.3h-2.1V91.4h-2.2v-1.7h6.5V91.4z"/>
		<path class="st8" d="M105.7,92.2v6.9c0,1.2-1,2.7-3.1,2.7c-2.4,0-3.2-1.5-3.2-2.7v-6.9c0-1.2,0.8-2.7,3.2-2.7
			C104.8,89.6,105.7,91,105.7,92.2z M103.6,92.2c0-0.4-0.3-1-1-1c-0.8,0-1.1,0.6-1.1,1v6.9c0,0.4,0.3,1,1.1,1c0.6,0,1-0.7,1-1V92.2z
			"/>
		<path class="st8" d="M117.1,89.7v12H115l-2.1-6.8h0v6.8h-2.1v-12h2.3l2,6.6h0v-6.6H117.1z"/>
		<path class="st8" d="M124.3,91.4v2.9h2.2v1.7h-2.2v3.9h3.3v1.7h-5.4v-12h5.2v1.7H124.3z"/>
	</g>
	<g>
		<path class="st8" d="M69.3,66.5h-4.5l-0.6-0.6V64l-4.4-4.5l0-0.9l3.7-3.7l0.4-0.2h6.6l2.4-2.4l0.4-0.2h3l0.4,0.2l3.7,3.7l0.2,0.4
			v3.1L80.6,60l-1.1,1.1l-0.4,0.2h-2.4v2.4l-0.6,0.6h-4.2l-2.1,2.1L69.3,66.5z M65.4,65.3H69l2.1-2.1l0.4-0.2h3.9v-2.4l0.6-0.6h2.8
			l0.7-0.7v-2.6l-3.4-3.4h-2.5l-2.4,2.4L70.8,56h-6.6l-3.1,3.1l4.2,4.2l0.2,0.4V65.3z"/>
	</g>
	<g>
		<path class="st8" d="M59.9,56.1c-4.5,0-8.1-3.6-8.1-8.1c0-4.5,3.6-8.1,8.1-8.1s8.1,3.6,8.1,8.1h-1.2c0-3.8-3.1-6.8-6.8-6.8
			S53,44.2,53,48c0,3.8,3.1,6.8,6.8,6.8V56.1z"/>
	</g>
	<g>
		<path class="st8" d="M81.9,56.1v-1.2c3.8,0,6.8-3.1,6.8-6.8c0-3.8-3.1-6.8-6.8-6.8c-3.8,0-6.8,3.1-6.8,6.8h-1.2
			c0-4.5,3.6-8.1,8.1-8.1c4.5,0,8.1,3.6,8.1,8.1C90,52.4,86.3,56.1,81.9,56.1z"/>
	</g>
	<g>
		<path class="st8" d="M59.9,78.1c-4.5,0-8.1-3.6-8.1-8.1c0-4.5,3.6-8.1,8.1-8.1v1.2c-3.8,0-6.8,3.1-6.8,6.8c0,3.8,3.1,6.8,6.8,6.8
			s6.8-3.1,6.8-6.8h1.2C67.9,74.4,64.3,78.1,59.9,78.1z"/>
	</g>
	<g>
		<path class="st8" d="M81.9,78.1c-4.5,0-8.1-3.6-8.1-8.1H75c0,3.8,3.1,6.8,6.8,6.8c3.8,0,6.8-3.1,6.8-6.8c0-3.8-3.1-6.8-6.8-6.8
			v-1.2c4.5,0,8.1,3.6,8.1,8.1C90,74.4,86.3,78.1,81.9,78.1z"/>
	</g>
	<polygon class="st8" points="84.8,68.4 84.8,68.4 84.8,68.4 81.7,69.3 79.3,67.1 78.5,67.9 80.8,70.2 80,73.3 81.2,73.6 82,70.5
		85.1,69.6 	"/>
	<polygon class="st8" points="63.2,67.9 62.3,67.1 60,69.3 56.9,68.4 56.9,68.4 56.9,68.4 56.6,69.6 59.7,70.5 60.5,73.6 61.6,73.3
		60.8,70.2 	"/>
	<polygon class="st8" points="62.7,50.3 60.4,48 61.3,44.9 61.3,44.9 61.3,44.9 60.1,44.5 59.2,47.6 56.1,48.4 56.4,49.6 59.5,48.8
		61.8,51.1 	"/>
	<polygon class="st8" points="85.6,48.4 82.5,47.6 81.6,44.5 80.4,44.9 80.4,44.9 80.4,44.9 81.3,48 79,50.3 79.9,51.1 82.2,48.8
		85.3,49.6 	"/>
</g>
</svg>
